<svg width="22" height="22" viewBox="0 0 22 22" stroke="currentColor" fill="none" xmlns="http://www.w3.org/2000/svg">
  <path
    d="M14.6804 13.587C18.1704 13.587 21.0004 10.769 21.0004 7.293C21.0004 3.817 18.1704 1 14.6804 1C11.1904 1 8.36342 3.818 8.36342 7.293C8.36342 8.903 9.09742 10.074 9.09742 10.074L1.45542 17.684C1.11242 18.026 0.632422 18.914 1.45542 19.734L2.33742 20.612C2.68042 20.905 3.54242 21.315 4.24742 20.612L5.27742 19.588C6.30542 20.612 7.48142 20.027 7.92242 19.441C8.65642 18.417 7.77542 17.392 7.77542 17.392L8.06942 17.099C9.47942 18.505 10.7144 17.685 11.1554 17.099C11.8904 16.075 11.1554 15.05 11.1554 15.05C10.8614 14.465 10.2734 14.465 11.0084 13.733L11.8904 12.855C12.5954 13.44 14.0454 13.587 14.6824 13.587H14.6804Z"
    stroke-width="1" stroke-linejoin="round" />
  <path
    d="M16.8855 7.29366C16.8842 7.87696 16.6513 8.43586 16.238 8.84748C15.8247 9.25909 15.2648 9.48972 14.6815 9.48866C14.0982 9.48972 13.5384 9.25909 13.1251 8.84748C12.7118 8.43586 12.4789 7.87696 12.4775 7.29366C12.4781 7.00475 12.5355 6.71878 12.6465 6.45206C12.7576 6.18534 12.9201 5.94311 13.1247 5.7392C13.3294 5.53528 13.5722 5.37367 13.8393 5.26359C14.1064 5.15352 14.3926 5.09713 14.6815 5.09766C14.9704 5.09713 15.2566 5.15352 15.5237 5.26359C15.7909 5.37367 16.0337 5.53528 16.2383 5.7392C16.443 5.94311 16.6055 6.18534 16.7165 6.45206C16.8276 6.71878 16.885 7.00475 16.8855 7.29366Z"
    stroke-width="1" />
</svg>