<svg width="512" height="512" viewBox="0 0 512 512" fill="none" xmlns="http://www.w3.org/2000/svg">
  <mask id="mask0_185_16" style="mask-type:alpha" maskUnits="userSpaceOnUse" x="54" y="60" width="407" height="387">
    <path
      d="M401.69 82.3334L334.444 60.2392L245.144 332.032C234.504 364.416 199.901 382.519 167.715 371.945C135.529 361.37 118.405 326.271 129.046 293.886C139.495 262.082 173.334 244.367 204.751 253.408L227.171 185.171C158.396 163.855 84.7898 201.821 61.8001 271.792C38.6198 342.344 76.3253 417.521 145.87 440.371C215.414 463.22 290.549 424.476 313.539 354.503L359.329 215.137C378.538 241.952 405.964 263.136 438.535 274.479L460.955 206.241C410.948 187.889 384.97 133.222 401.69 82.3334Z"
      fill="white" />
  </mask>
  <g mask="url(#mask0_185_16)">
    <rect x="151.1" width="60" height="420" transform="rotate(18.1883 151.1 0)" fill="#61BB46" />
    <rect x="208.102" y="18.7285" width="59" height="420" transform="rotate(18.1883 208.102 18.7285)" fill="#FDB827" />
    <rect x="264.154" y="37.1445" width="60" height="420" transform="rotate(18.1883 264.154 37.1445)" fill="#F5821F" />
    <rect x="321.156" y="55.873" width="60" height="420" transform="rotate(18.1883 321.156 55.873)" fill="#E03A3E" />
    <rect x="377.208" y="74.29" width="59" height="420" transform="rotate(18.1883 377.208 74.29)" fill="#963D97" />
    <rect x="433.26" y="92.7061" width="60" height="420" transform="rotate(18.1883 433.26 92.7061)" fill="#009DDC" />
  </g>
</svg>