<svg xmlns="http://www.w3.org/2000/svg" width="56" height="56" fill="none" size="56">
  <path fill="#A8CC00" fill-rule="evenodd"
    d="M7.124 4.49c4.926-.558 10.47 1.61 14.457 6.163 3.988 4.551 5.41 10.331 4.209 15.141-4.926.558-10.47-1.61-14.457-6.163C7.345 15.08 5.923 9.3 7.124 4.49M30.21 29.816c-1.2 4.81.22 10.591 4.209 15.144 3.988 4.552 9.53 6.72 14.457 6.163 1.2-4.81-.22-10.591-4.209-15.144-3.988-4.552-9.53-6.72-14.456-6.163"
    clip-rule="evenodd"></path>
  <path fill="var(--el-text-color-primary)" fill-rule="evenodd"
    d="M48.876 4.49c-4.926-.558-10.47 1.61-14.457 6.163-3.988 4.551-5.41 10.331-4.209 15.141 4.926.558 10.47-1.61 14.457-6.163C48.655 15.08 50.077 9.3 48.876 4.49M25.79 29.816c1.2 4.81-.22 10.591-4.209 15.144-3.988 4.552-9.53 6.72-14.457 6.163-1.2-4.81.22-10.591 4.209-15.144 3.987-4.552 9.53-6.72 14.456-6.163"
    clip-rule="evenodd"></path>
</svg>