<svg width="29" height="29" viewBox="0 0 29 29" fill="none" xmlns="http://www.w3.org/2000/svg">
  <path
    d="M20.9552 15.3009C20.9803 13.3922 21.9993 11.6292 23.6554 10.6294C22.6059 9.15767 20.9111 8.258 19.0822 8.20182C17.1581 8.00351 15.2928 9.33235 14.3123 9.33235C13.3128 9.33235 11.8032 8.22151 10.1775 8.25435C8.03863 8.3222 6.09294 9.48734 5.05232 11.3235C2.83629 15.0908 4.48925 20.6275 6.61203 23.6727C7.6741 25.1639 8.91535 26.8295 10.5395 26.7705C12.1288 26.7057 12.7224 25.7753 14.6409 25.7753C16.5416 25.7753 17.0985 26.7705 18.7556 26.7329C20.461 26.7057 21.5355 25.2351 22.5603 23.7298C23.3234 22.6673 23.9106 21.493 24.3002 20.2504C22.2746 19.4092 20.9576 17.4604 20.9552 15.3009Z"
    fill="currentColor"></path>
  <path
    d="M17.8255 6.19879C18.7554 5.10271 19.2135 3.69388 19.1025 2.27148C17.6819 2.418 16.3696 3.08469 15.4272 4.13872C14.4966 5.17866 14.0251 6.53918 14.1167 7.92063C15.5564 7.93518 16.9233 7.30056 17.8255 6.19879Z"
    fill="currentColor"></path>
</svg>