<svg width="473" height="512" viewBox="0 0 473 512" fill="none" xmlns="http://www.w3.org/2000/svg">
<mask id="mask0_183_5" style="mask-type:alpha" maskUnits="userSpaceOnUse" x="35" y="60" width="407" height="388">
<path d="M381.85 82.4828L314.604 60.3886L225.304 332.181C214.664 364.565 180.061 382.669 147.875 372.094C115.689 361.519 98.5655 326.42 109.206 294.036C119.655 262.231 153.495 244.516 184.911 253.558L207.331 185.321C138.556 164.005 64.95 201.97 41.9602 271.942C18.78 342.493 56.4854 417.67 126.03 440.52C195.574 463.369 270.709 424.625 293.699 354.653L339.489 215.287C358.698 242.101 386.124 263.286 418.695 274.628L441.115 206.39C391.108 188.038 365.13 133.372 381.85 82.4828Z" fill="white"/>
</mask>
<g mask="url(#mask0_183_5)">
<rect x="131.26" y="0.149414" width="60" height="420" transform="rotate(18.1883 131.26 0.149414)" fill="#61BB46"/>
<rect x="188.262" y="18.8779" width="59" height="420" transform="rotate(18.1883 188.262 18.8779)" fill="#FDB827"/>
<rect x="244.314" y="37.2939" width="60" height="420" transform="rotate(18.1883 244.314 37.2939)" fill="#F5821F"/>
<rect x="301.316" y="56.0225" width="60" height="420" transform="rotate(18.1883 301.316 56.0225)" fill="#E03A3E"/>
<rect x="357.368" y="74.4395" width="59" height="420" transform="rotate(18.1883 357.368 74.4395)" fill="#963D97"/>
<rect x="413.42" y="92.8555" width="60" height="420" transform="rotate(18.1883 413.42 92.8555)" fill="#009DDC"/>
</g>
</svg>
